<svg width="26" height="26" viewBox="0 0 26 26" fill="none" xmlns="http://www.w3.org/2000/svg">
<path fill-rule="evenodd" clip-rule="evenodd" d="M17.3334 10.1111C17.3334 14.0998 14.0998 17.3333 10.1111 17.3333C6.1224 17.3333 2.88889 14.0998 2.88889 10.1111C2.88889 6.12238 6.1224 2.88887 10.1111 2.88887C14.0998 2.88887 17.3334 6.12238 17.3334 10.1111ZM15.7888 18.4788C14.1703 19.5792 12.2158 20.2222 10.1111 20.2222C4.52691 20.2222 0 15.6954 0 10.1111C0 4.52691 4.52691 0 10.1111 0C15.6954 0 20.2222 4.52691 20.2222 10.1111C20.2222 12.5448 19.3624 14.7777 17.9299 16.5226L25.5316 23.4907C26.1196 24.0298 26.1594 24.9436 25.6204 25.5316C25.0814 26.1196 24.1676 26.1594 23.5796 25.6204L15.7888 18.4788Z" fill="#627DDF"/>
</svg>
